<svg class="logo center" width="200" height="200" viewBox="0 0 300 300"  version="1.1" xmlns="http://www.w3.org/2000/svg" xml:space="preserve" style="fill-rule:evenodd;clip-rule:evenodd;stroke-miterlimit:10;">
    <path class="circle" d="M275.123,150.962C275.585,81.974 219.951,25.59 150.963,25.128C81.975,24.665 25.59,80.299 25.128,149.287C24.665,218.275 80.3,274.66 149.288,275.122C218.276,275.584 274.66,219.95 275.123,150.962Z" style="fill:none;stroke:white;stroke-width:5px;"/>
    <path class="mk" d="M132.547,35.824C138.279,34.95 144.149,34.497 150.125,34.497C150.563,34.497 151.001,34.499 151.437,34.504L151.437,141.092L165.497,141.092C167.617,141.092 169.458,141.008 171.021,140.842C172.582,140.673 174.005,140.368 175.29,139.92C176.571,139.476 177.743,138.833 178.804,137.995C179.864,137.158 181.006,136.129 182.236,134.9L239.176,76.365C242.219,80.036 245.04,83.897 247.617,87.928L198.807,138.08C196.685,140.313 194.816,142.041 193.2,143.269C191.581,144.498 189.768,145.501 187.759,146.28C190.103,146.95 192.221,147.984 194.12,149.378C196.016,150.775 197.913,152.587 199.811,154.818L250.428,207.689C247.9,212.084 245.092,216.297 242.028,220.303L184.747,161.68C183.517,160.454 182.374,159.394 181.316,158.5C180.253,157.61 179.082,156.856 177.8,156.241C176.515,155.629 175.009,155.181 173.281,154.901C171.549,154.624 169.347,154.483 166.668,154.483L151.437,154.483L151.437,265.746C151.001,265.751 150.563,265.754 150.125,265.754C145.463,265.754 140.865,265.478 136.348,264.941L136.375,263.22L136.375,66.773C136.375,63.872 136.543,60.805 136.877,57.568L51.106,209.865C48.077,204.856 45.418,199.599 43.166,194.131L132.547,35.824Z" style="fill:white;fill-rule:nonzero;"/>
</svg>